<?xml version="1.0" encoding="UTF-8" standalone="no"?>
<svg width="217px" height="158px" viewBox="0 0 217 158" version="1.1" xmlns="http://www.w3.org/2000/svg" xmlns:xlink="http://www.w3.org/1999/xlink" xmlns:sketch="http://www.bohemiancoding.com/sketch/ns">
    <!-- Generator: Sketch 3.0.3 (7892) - http://www.bohemiancoding.com/sketch -->
    <title>Slice 1</title>
    <desc>Created with Sketch.</desc>
    <defs></defs>
    <g id="Page-1" stroke="none" stroke-width="1" fill="none" fill-rule="evenodd" sketch:type="MSPage">
        <path d="M8.349638,149.518747 L208.475547,147.742647 L208.475546,10 L8.349638,10 L8.349638,149.518747 L8.349638,149.518747 Z" id="rectangle-body" stroke="#000000" stroke-width="1.5" sketch:type="MSShapeGroup"></path>
        <path d="M108.5,0.5 L108.5,16.5" id="vertical-line-up" stroke="#000000" sketch:type="MSShapeGroup"></path>
        <path d="M108.5,141.5 L108.5,157.5" id="vertical-line-down" stroke="#000000" sketch:type="MSShapeGroup"></path>
        <path d="M0.5,81.5 L16.5,81.5" id="horizontal-left-down" stroke="#000000" sketch:type="MSShapeGroup"></path>
        <path d="M0.5,78.5 L16.5,78.5" id="horizontal-left-up" stroke="#000000" sketch:type="MSShapeGroup"></path>
        <path d="M200.5,81.5 L216.5,81.5" id="horizontal-right-down" stroke="#000000" sketch:type="MSShapeGroup"></path>
        <path d="M200.5,78.5 L216.5,78.5" id="horizontal-right-up" stroke="#000000" sketch:type="MSShapeGroup"></path>
        <path d="M9.0723139,22.0075124 L21.0960837,22.0075124 L21.0960837,10.149575" id="90-degree-upper-left" stroke="#000000" sketch:type="MSShapeGroup"></path>
        <path d="M195.927686,146.708362 L207.951456,146.708362 L207.951456,134.850425" id="90-degree-lower-right" stroke="#000000" sketch:type="MSShapeGroup" transform="translate(201.927686, 140.850425) scale(-1, -1) translate(-201.927686, -140.850425) "></path>
        <path d="M9.0723139,148.708362 L21.0960837,148.708362 L21.0960837,136.850425" id="90-degree-lower-left" stroke="#000000" sketch:type="MSShapeGroup" transform="translate(15.072314, 142.850425) scale(1, -1) translate(-15.072314, -142.850425) "></path>
        <path d="M195.927686,22.0075124 L207.951456,22.0075124 L207.951456,10.149575" id="90-degree-upper-right" stroke="#000000" sketch:type="MSShapeGroup" transform="translate(201.927686, 16.149575) scale(-1, 1) translate(-201.927686, -16.149575) "></path>
    </g>
</svg>