<svg id="eSQzonst1iI1" xmlns="http://www.w3.org/2000/svg" xmlns:xlink="http://www.w3.org/1999/xlink" viewBox="0 0 1000 1080" shape-rendering="geometricPrecision" text-rendering="geometricPrecision"><g transform="matrix(.1-.000136-.000136-.1 0 1080)"><path d="M4935,9991c-70-25-141-62-280-146-158-95-549-318-1260-720-319-180-652-368-740-418-195-110-991-566-1167-668l-128-74v-480c-1-264-3-520-5-570-2-49-9-621-15-1270-11-1208-15-1516-26-1759-11-230,0-253,153-337c43-23,386-216,763-427C5177,1467,4955,1590,4999,1590c14,0,54,13,87,29c56,26,624,342,984,546c803,456,2358,1329,2450,1375c85,42,126,74,148,113c21,40,22-202-14,3614l-7,693-91,59c-111,71-280,169-576,334-124,68-560,316-970,549-736,420-967,551-1737,987-163,92-227,121-267,121-11-1-43-9-71-19Zm14-623c1-389,0-417-16-422-10-3-191-53-403-111-212-59-646-178-965-266-974-269-1748-479-1752-476-4,5,1614,925,2857,1624l265,149l7-40c3-23,7-229,7-458Zm551,257c234-131,772-435,1195-675c714-405,1251-708,1438-809c42-24,77-44,77-46s-15,0-32,5c-18,5-139,36-268,70-392,102-820,219-1815,495-522,145-969,268-992,275l-43,11v460c0,253,3,458,8,456c4-3,198-112,432-242Zm-710-987c-201-376-611-1124-1210-2203-345-621-732-1322-861-1557-128-235-234-426-236-425-11,12-997,3427-991,3432c2,1,41,12,88,25c443,116,3282,898,3289,906c2,2,6,2,9,0c2-3-38-82-88-178Zm1910-256c459-127,1056-290,1325-363c270-73,491-133,493-134c3-3-83-305-573-2000-166-577-327-1134-356-1237-29-104-55-188-59-188-3,0-96,163-207,363-110,199-337,607-503,907-638,1149-1700,3076-1700,3085c0,2,284-75,1580-433ZM5330,8190c172-311,507-916,745-1345c778-1404,1370-2484,1364-2490-2-2-1099-5-2437-7l-2432-3v21c0,11,13,40,28,65c15,24,44,73,64,109c19,36,235,427,480,870s590,1068,768,1390c256,464,1065,1926,1087,1963c3,5,9,5,13,0c4-4,148-262,320-573ZM8554,6055c3-330,8-919,11-1310c3-390,8-763,11-827l5-118h-23c-13,0-39,10-58,22-19,11-224,126-455,255s-423,237-427,241s78,302,183,662c104,360,309,1071,455,1580s268,932,272,940c7,16,16-486,26-1445ZM1583,7140c58-195,223-762,366-1260s303-1051,355-1229c53-179,95-326,93-327-1-1-123-71-272-156-300-172-664-368-684-368-10,0-11,50-7,238c4,130,11,755,16,1387c11,1276,21,2078,25,2073c2-2,51-163,108-358ZM7370,4231c2-1-27-34-66-73-39-40-151-161-250-268-284-308-496-532-1359-1430-198-207-436-455-529-552l-168-177-77,82c-245,263-586,624-1035,1096-718,756-787,828-1025,1086l-213,230l394,5c295,4,4301,5,4328,1Zm700-296c179-100,356-198,393-219c38-21,67-39,65-41-8-6-943-531-1603-900-618-345-1447-809-1582-887l-38-22l26,30c153,175,679,733,1758,1867l445,467l105-57c58-31,252-138,431-238ZM2501,4192c37-24,601-607,1140-1177c304-322,944-1005,1014-1084l50-55-75,41c-522,284-873,480-1755,975-357,201-798,448-980,548-404,223-417,231-413,235c16,16,759,430,903,503c70,36,81,38,116,14Z"/><path d="M4485,9395c-320-72-321-73-348-100-23-22-21-62,2-75c31-16,81-12,171,15c46,14,89,25,95,25c7,0-40-53-104-118-162-163-227-282-172-312c48-25,94,7,130,93c29,66,149,183,269,261c151,98,179,142,125,198-31,32-69,35-168,13Z"/><path d="M3842,9185c-74-37-132-92-132-125c0-11,9-28,21-39l21-19-82-88c-82-90-120-147-120-183c0-39,11-51,47-51c43,0,84,41,256,253c181,225,191,242,162,271-28,27-94,20-173-19Z"/><path d="M5562,9364c-12-8-22-26-22-39c0-40,35-55,125-55c45,0,104-7,131-15c50-15,103-49,93-59-3-3-42-10-88-15-109-12-145-44-107-96c12-17,28-19,157-20c128,0,148-2,185-22c46-25,118-99,109-113-10-16-123-11-232,10-102,20-141,17-158-10-15-25,5-58,50-79c90-42,329-66,403-40c52,18,78,76,74,162-3,42-65,100-162,151-66,34-86,49-88,68-8,63-79,125-190,164-83,29-243,34-280,8Z"/><path d="M2431,7612c-20-21-49-69-65-107-16-39-64-139-108-222-81-159-94-206-62-237c8-9,29-16,46-16c52,0,94,57,176,236c40,87,81,169,90,182c17,22,17,22,93-85c42-60,114-153,160-208c103-123,337-355,397-395c57-38,109-40,140-7c45,47,25,80-98,167-142,100-350,337-505,576-88,135-110,154-178,154-45,0-54-4-86-38Z"/><path d="M7173,7726c-37-17-51-54-37-95c7-21,23-30,82-49c39-13,72-27,72-30-1-11-667-371-688-372-7,0-26,29-41,63-47,105-106,134-155,76-14-17-26-34-26-39c0-23,34-97,87-185c33-55,76-130,96-167c58-105,112-139,165-102c31,21,28,65-8,142-17,35-30,65-30,67c0,5,130,78,490,275c162,89,310,176,327,193c47,46,52,85,16,121-76,76-277,135-350,102Z"/><path d="M7530,7150c-145-31-248-180-238-344c5-77,24-124,70-172l29-31-93-11c-187-23-213-24-330-11-130,14-142,11-168-34-13-24-13-28,6-53c33-45,82-56,264-61c335-10,622,64,737,190c64,71,88,138,88,242-1,88-20,144-69,202-57,68-189,105-296,83Zm198-205c32-35,34-41,29-87-13-106-81-173-176-173-79,0-128,27-153,82-24,54-17,98,24,147c76,92,207,107,276,31Z"/><path d="M5019,6492c-67-43-118-90-166-156-47-64-54-100-25-136c25-31,73-21,143,29l54,39-6-374c-4-206-10-381-13-389-4-11-23-15-81-15-93,0-140-17-149-56-9-36,19-75,64-87c18-4,133-7,254-5c192,3,226,5,249,21c21,13,27,26,27,52c0,57-28,72-145,77l-50,3v310c0,171,2,378,3,461c3,123,0,159-14,193-27,69-72,79-145,33Z"/><path d="M8182,5660c-46-19-48-95-3-119c32-18,58-13,80,15c26,34,27,68,1,94-22,22-42,24-78,10Z"/><path d="M8006,5362c-2-4-7-75-11-157-21-439,81-672,284-653c208,20,247,407,51,506-58,29-109,28-170-3-27-14-52-25-55-25s-4,64-3,143c3,123,1,146-15,170-12,19-26,27-47,27-16,0-31-3-34-8Zm310-439c28-42,37-100,23-162-34-160-189-116-189,54c0,93,43,148,110,143c26-2,40-11,56-35Z"/><path d="M1665,5697c-59-59-67-140-24-264c20-59,24-119,10-142-13-21-28-6-35,36-19,106-39,143-76,143-31,0-50-28-50-73c0-88,72-280,110-292c34-11,83,23,132,91c64,90,67,112,27,215-35,89-44,168-21,191c21,21,44-3,72-70c32-78,52-102,89-102c24,0,29,5,35,31c12,59-22,158-73,212-36,40-73,57-122,57-33,0-47-6-74-33Z"/><path d="M1846,5214c-19-18-20-44-5-78c10-21,5-39-40-133-28-59-59-121-67-138-9-16-32-58-50-93-60-112-40-172,61-188c62-9,142,12,162,42c14,22,14,26-2,50-15,23-22,25-66,22-35-2-49,1-49,10c0,11,115,260,124,270c3,2,14-6,25-17c30-30,76-28,97,4c16,25,16,28-21,101-44,86-108,164-135,164-10,0-26-7-34-16Z"/><path d="M5195,3813c-11-2-30-6-43-9-30-6-62-39-62-64c0-12,11-31,23-44c19-19,39-25,107-31l83-7-6-440c-7-471-5-492,42-518c28-15,77-1,133,38c46,32,144,130,172,172c22,33,20,76-5,101-27,27-67,19-139-29l-55-38l3,246c2,135,6,296,10,358l7,114l85,2c47,1,95,8,108,15c46,25,48,92,3,115-25,13-419,29-466,19Z"/><path d="M4580,3791c-91-28-186-116-214-198-18-53-21-141-6-194c6-20,33-65,60-99l50-62-44-49c-124-137-97-348,57-453c206-141,453-34,474,205c9,100-14,135-81,122-31-6-56-51-56-99c0-41-30-93-69-120-27-18-49-24-92-24-97,0-159,64-159,165c0,68,14,90,93,154c37,29,70,64,73,77c11,44-4,72-52,96-66,33-107,93-112,166-3,47,0,63,20,91c37,55,71,74,135,78c95,7,142-36,163-149c12-64,33-88,75-88c47,0,65,26,65,91c0,176-123,301-294,298-34,0-72-4-86-8Z"/><path d="M7699,3781c-23-19-23-20-7-54l17-36-137-31c-294-67-349-94-326-154c10-25,113-21,230,10c55,14,148,38,208,54c59,15,120,37,135,47c50,38,33,124-32,163-40,25-59,25-88,1Z"/><path d="M7342,3383c-26-10-33-41-18-72c15-28,15-29-12-40-15-6-92-24-172-39-201-40-251-67-236-128c6-21,12-24,53-24c48,0,398,79,456,103c47,20,67,44,67,80c0,73-81,143-138,120Z"/><path d="M2724,3590c-41-13-90-64-105-108s-6-139,15-181l17-32-38,3c-35,3-41,8-90,83-94,146-120,180-147,195-53,28-84-27-50-91c38-74,167-260,193-278c41-29,106-42,196-39l80,3l3,38c3,31-6,53-42,115-49,82-57,122-30,160c22,32,83,29,160-7c84-40,111-73,225-278c38-68,70-90,106-74c24,11,25,15,20,61-11,93-120,262-220,341-98,79-214,113-293,89Z"/></g></svg>
