<?xml version="1.0" encoding="utf-8"?>
<svg width="156px" height="156px"  viewBox="0 0 156 156" xmlns="http://www.w3.org/2000/svg" xmlns:bx="https://boxy-svg.com">
  <title>Slice 1</title>
  <desc>Created with Sketch.</desc>
  <g id="Page-1" stroke="none" stroke-width="1" fill="none" fill-rule="evenodd" transform="matrix(1, 0, 0, 1, -0.528, -2)">
    <path d="M 8.35 149.519 L 147.85 147.743 L 147.85 10 L 8.35 10 L 8.35 149.519 Z" id="rectangle-body" stroke="#000000" stroke-width="1.5"/>
    <path d="M 78.128 2 L 78.128 18" id="vertical-line-up" stroke="#000000" bx:origin="0 0"/>
    <path d="M 78.128 141 L 78.128 157" id="vertical-line-down" stroke="#000000" bx:origin="0 0.5"/>
    <path d="M9.0723139,22.0075124 L21.0960837,22.0075124 L21.0960837,10.149575" id="90-degree-upper-left" stroke="#000000"/>
    <path d="M 135.628 147.858 L 147.652 147.858 L 147.652 136" id="90-degree-lower-right" stroke="#000000" transform="matrix(-1, 0, 0, -1, 283.279996, 283.857995)"/>
    <path d="M9.0723139,148.708362 L21.0960837,148.708362 L21.0960837,136.850425" id="90-degree-lower-left" stroke="#000000" transform="translate(15.072314, 142.850425) scale(1, -1) translate(-15.072314, -142.850425) "/>
    <path d="M 135.628 10.15 L 147.652 10.15 L 147.652 22.008" id="90-degree-upper-right" stroke="#000000" transform="matrix(-1, 0, 0, -1, 283.279992, 32.157999)"/>
    <path d="M 0.528 80 L 16.528 80" id="path-1" stroke="#000000" bx:origin="0.5 0"/>
    <path d="M 139.828 80 L 155.828 80" id="path-2" stroke="#000000" bx:origin="-3.293756 0"/>
  </g>
</svg>